<svg width="70" height="71" viewBox="0 0 70 71" fill="none" xmlns="http://www.w3.org/2000/svg">
<path fill-rule="evenodd" clip-rule="evenodd" d="M39.6038 0.521928C47.4065 1.73297 53.2383 7.3213 58.5811 13.1353C63.6166 18.6148 67.4295 24.7691 68.6342 32.1127C70.1239 41.1929 71.6091 51.2216 66.0299 58.5389C59.9622 66.4968 49.6083 70.4243 39.6038 70.1867C29.8006 69.9539 21.4723 64.1092 14.4035 57.3129C7.15325 50.3422 0.150297 42.1693 0.00278105 32.1127C-0.146245 21.9532 5.7103 12.4984 13.6532 6.16215C20.847 0.423441 30.5103 -0.889459 39.6038 0.521928Z" fill="#CFDFFF"/>
<g clip-path="url(#clip0_1027_31368)">
<path d="M60 10H12V58H60V10Z" fill="white" fill-opacity="0.01"/>
<path d="M36 30C40.4183 30 44 26.4183 44 22C44 17.5817 40.4183 14 36 14C31.5817 14 28 17.5817 28 22C28 26.4183 31.5817 30 36 30Z" stroke="#2750AE" stroke-width="4" stroke-linecap="round" stroke-linejoin="round"/>
<path d="M54 54C54 44.0589 45.9411 36 36 36C26.0589 36 18 44.0589 18 54" stroke="#2750AE" stroke-width="4" stroke-linecap="round" stroke-linejoin="round"/>
<path d="M36 54L40 49L36 36L32 49L36 54Z" fill="#2750AE" stroke="#2750AE" stroke-width="4" stroke-linecap="round" stroke-linejoin="round"/>
</g>
<defs>
<clipPath id="clip0_1027_31368">
<rect width="48" height="48" fill="white" transform="translate(12 10)"/>
</clipPath>
</defs>
</svg>
