<svg width="70" height="71" viewBox="0 0 70 71" fill="none" xmlns="http://www.w3.org/2000/svg">
<path fill-rule="evenodd" clip-rule="evenodd" d="M39.6038 0.521928C47.4065 1.73297 53.2383 7.3213 58.5811 13.1353C63.6166 18.6148 67.4295 24.7691 68.6342 32.1127C70.1239 41.1929 71.6091 51.2216 66.0299 58.5389C59.9622 66.4968 49.6083 70.4243 39.6038 70.1867C29.8006 69.9539 21.4723 64.1092 14.4035 57.3129C7.15325 50.3422 0.150297 42.1693 0.00278105 32.1127C-0.146245 21.9532 5.7103 12.4984 13.6532 6.16215C20.847 0.423441 30.5103 -0.889459 39.6038 0.521928Z" fill="#FEE2D5"/>
<g clip-path="url(#clip0_1302_33871)">
<path d="M60 9H12V57H60V9Z" fill="white" fill-opacity="0.01"/>
<path d="M31 41C23.268 41 17 34.732 17 27C17 19.268 23.268 13 31 13C38.732 13 45 19.268 45 27" stroke="#F7653B" stroke-width="2" stroke-linejoin="round"/>
<path d="M56 27H30V53H56V27Z" stroke="#F7653B" stroke-width="2" stroke-linejoin="round"/>
</g>
<defs>
<clipPath id="clip0_1302_33871">
<rect width="48" height="48" fill="white" transform="translate(12 9)"/>
</clipPath>
</defs>
</svg>
