<svg width="70" height="72" viewBox="0 0 70 72" fill="none" xmlns="http://www.w3.org/2000/svg">
<path fill-rule="evenodd" clip-rule="evenodd" d="M33.4694 0.115534C45.0663 1.29449 48.0318 12.9528 55.1443 20.1379C60.6684 25.7185 69.0369 29.9115 69.8916 36.9099C70.8084 44.4172 65.7824 51.3104 59.6684 57.1825C52.6314 63.9409 44.641 71.1179 33.4694 71.8905C21.6406 72.7086 8.48485 68.924 2.12743 61.1621C-3.70791 54.0376 4.24995 45.3332 4.81828 36.9099C5.3284 29.3494 0.188259 21.549 5.23771 15.0644C11.3556 7.20771 21.7162 -1.0793 33.4694 0.115534Z" fill="#FFEAB6"/>
<path d="M27.7344 32C32.1527 32 35.7344 28.4183 35.7344 24C35.7344 19.5817 32.1527 16 27.7344 16C23.3161 16 19.7344 19.5817 19.7344 24C19.7344 28.4183 23.3161 32 27.7344 32Z" stroke="#B87503" stroke-width="4" stroke-linecap="round" stroke-linejoin="round"/>
<path d="M45.7344 56C45.7344 46.0589 37.6755 38 27.7344 38C17.7933 38 9.73438 46.0589 9.73438 56" stroke="#B87503" stroke-width="4" stroke-linecap="round" stroke-linejoin="round"/>
</svg>
