<svg width="24" height="24" viewBox="0 0 24 24" fill="none" xmlns="http://www.w3.org/2000/svg">
<g clip-path="url(#clip0_892_46773)">
<path d="M12 22C17.5229 22 22 17.5228 22 12C22 6.47713 17.5229 2 12 2C6.47715 2 2 6.47713 2 12C2 17.5228 6.47715 22 12 22Z" stroke="#333333" stroke-width="2"/>
<path d="M3 15.4929C4.31596 16.0206 5.2633 16.0206 5.84195 15.4929C6.70995 14.7014 5.96095 12.299 7.1766 11.6365C8.3922 10.9739 10.2443 13.9108 11.9754 12.9445C13.7064 11.9781 11.8123 9.40127 13.0136 8.35662C14.2149 7.31197 15.777 8.49012 16.0501 6.74337C16.3231 4.99664 14.7761 5.75422 14.4792 4.10359C14.2813 3.00318 14.2813 2.42454 14.4792 2.36768" stroke="#333333" stroke-width="2" stroke-linecap="round"/>
<path d="M14.5107 21.6751C13.5737 20.7161 13.2363 19.8247 13.4987 19.0008C13.8923 17.765 14.5416 17.8381 14.8247 17.074C15.1077 16.3098 14.3081 15.2215 16.0824 14.2912C17.2653 13.6709 18.8918 14.3896 20.9617 16.4471" stroke="#333333" stroke-width="2" stroke-linecap="round"/>
</g>
<defs>
<clipPath id="clip0_892_46773">
<rect width="24" height="24" fill="white"/>
</clipPath>
</defs>
</svg>
