<svg width="61" height="78" viewBox="0 0 61 78" fill="none" xmlns="http://www.w3.org/2000/svg">
<path fill-rule="evenodd" clip-rule="evenodd" d="M30.7203 0.00314354C40.2398 -0.218279 44.8951 11.3074 50.7455 18.8203C55.5322 24.9673 61.4965 31.0726 60.9671 38.8455C60.4575 46.3282 52.8556 50.4432 48.1917 56.3168C42.3678 63.6515 40.0034 75.6977 30.7203 76.9381C21.2851 78.1988 13.0528 69.6838 7.8598 61.706C3.52284 55.0432 5.21841 46.764 5.92504 38.8455C6.53922 31.9628 7.88748 25.5551 11.6055 19.7307C16.7272 11.7074 21.2042 0.224487 30.7203 0.00314354Z" fill="#D1F7C4"/>
<g clip-path="url(#clip0_1302_33874)">
<path d="M48 15H0V63H48V15Z" fill="white" fill-opacity="0.01"/>
<path d="M30 49.5C30 47.567 31.567 46 33.5 46H41V49.4C41 51.3882 39.3882 53 37.4 53H33.5C31.567 53 30 51.433 30 49.5Z" stroke="#338A17" stroke-width="2" stroke-linejoin="round"/>
<path d="M6 53.5C6 51.567 7.567 50 9.5 50H16V53.4C16 55.3882 14.3882 57 12.4 57H9.5C7.567 57 6 55.433 6 53.5Z" stroke="#338A17" stroke-width="2" stroke-linejoin="round"/>
<path d="M16 33.044L41 27.125" stroke="#338A17" stroke-width="2" stroke-linecap="round" stroke-linejoin="round"/>
<path d="M16 53V25L41 19V48.6924" stroke="#338A17" stroke-width="2" stroke-linecap="round" stroke-linejoin="round"/>
</g>
<defs>
<clipPath id="clip0_1302_33874">
<rect width="48" height="48" fill="white" transform="translate(0 15)"/>
</clipPath>
</defs>
</svg>
