<svg width="69" height="74" viewBox="0 0 69 74" fill="none" xmlns="http://www.w3.org/2000/svg">
<path fill-rule="evenodd" clip-rule="evenodd" d="M31.1887 1.06706C40.8608 2.93566 43.2345 15.2199 49.9846 22.3947C56.3227 29.1315 68.0663 31.9822 68.9376 41.1906C69.8268 50.5887 61.0398 57.7244 53.9132 63.9152C47.4112 69.5634 39.798 73.7401 31.1887 73.9827C22.3265 74.2324 13.0988 71.8034 7.14656 65.2328C1.40016 58.8894 2.10121 49.7275 1.48278 41.1906C0.78516 31.5607 -2.35396 21.153 3.39114 13.3931C9.66097 4.92448 20.843 -0.931664 31.1887 1.06706Z" fill="#CFDFFF"/>
<path d="M45 24H15C13.3432 24 12 25.3432 12 27V57C12 58.6569 13.3432 60 15 60H45C46.6569 60 48 58.6569 48 57V27C48 25.3432 46.6569 24 45 24Z" stroke="#2750AE" stroke-width="2" stroke-linecap="round" stroke-linejoin="round"/>
<path d="M26.5 45.9999V39.9377L31.75 42.9688L37 45.9999L31.75 49.031L26.5 52.0621V45.9999Z" stroke="#2750AE" stroke-width="2" stroke-linecap="round" stroke-linejoin="round"/>
<path d="M12 33H48" stroke="#2750AE" stroke-width="2" stroke-linecap="round" stroke-linejoin="round"/>
<path d="M39 24L33 33" stroke="#2750AE" stroke-width="2" stroke-linecap="round" stroke-linejoin="round"/>
<path d="M27 24L21 33" stroke="#2750AE" stroke-width="2" stroke-linecap="round" stroke-linejoin="round"/>
</svg>
